<svg xmlns="http://www.w3.org/2000/svg" width="46.7" height="42.756" viewBox="0 0 46.7 42.756"><path d="M628.42,1946.71a3.87,3.87,0,1,1,3.87,3.87A3.87,3.87,0,0,1,628.42,1946.71Zm-20.329,0a3.87,3.87,0,1,1,3.87,3.87A3.87,3.87,0,0,1,608.09,1946.71Zm2.146-6.669a6.969,6.969,0,0,1-6.65-4.845l-7.208-22.352a.236.236,0,0,0-.225-.165h-1.576a2.428,2.428,0,0,1,0-4.856h1.576a5.077,5.077,0,0,1,4.846,3.532l7.208,22.352a2.128,2.128,0,0,0,2.029,1.476h26.186a2.429,2.429,0,0,1,0,4.857Zm1.651-7.811a1.657,1.657,0,0,1-1.579-1.154l-4.991-15.607a2.666,2.666,0,0,1,2.538-3.479h27.117a2.666,2.666,0,0,1,2.591,3.289l-3.76,15.68a1.659,1.659,0,0,1-1.613,1.271Z" transform="translate(-592.15 -1907.824)" fill="#262626"/></svg>