<svg xmlns="http://www.w3.org/2000/svg" width="54.139" height="54.129"><path d="M.411 49.538l11.773-20.944 8.348 5.063-5.809-9.575 5.352-9.509a10.731 10.731 0 0116.946-2.333l4.873 4.872a10.752 10.752 0 01-.559 15.712l-10.279-5.885 5.161 9.01-18.805 10.565-6.746-3.635 3.073 5.7-9.151 5.142a3.123 3.123 0 01-1.517.409 3.081 3.081 0 01-2.66-4.592zm43.108-34.052l-4.873-4.872a13.318 13.318 0 00-2.172-1.751A39.173 39.173 0 0039.108.974a1.2 1.2 0 012.148-.479c1.056 1.452 2.1 3.318 1.788 4.715l7.224-2.9a1.2 1.2 0 011.561 1.56l-2.9 7.217c1.4-.312 3.264.733 4.716 1.788a1.2 1.2 0 01-.48 2.147 38.938 38.938 0 00-7.885 2.633 13.138 13.138 0 00-1.761-2.169z" fill="#262626"/></svg>