<svg xmlns="http://www.w3.org/2000/svg" width="46.7" height="42.756"><path d="M36.27 38.886a3.87 3.87 0 113.87 3.87 3.87 3.87 0 01-3.87-3.87zm-20.329 0a3.87 3.87 0 113.87 3.87 3.87 3.87 0 01-3.871-3.87zm2.146-6.669a6.969 6.969 0 01-6.65-4.845L4.229 5.02a.236.236 0 00-.225-.165H2.428a2.428 2.428 0 010-4.856h1.576A5.077 5.077 0 018.85 3.531l7.208 22.352a2.128 2.128 0 002.029 1.476h26.186a2.429 2.429 0 010 4.857zm1.651-7.811a1.657 1.657 0 01-1.579-1.154L13.168 7.645a2.666 2.666 0 012.538-3.479h27.117a2.666 2.666 0 012.591 3.289l-3.76 15.68a1.659 1.659 0 01-1.613 1.271z" fill="#262626"/></svg>