<svg xmlns="http://www.w3.org/2000/svg" width="53.68" height="47.599"><path d="M30.55 42.223c-.835 0-1.67 0-2.506-.013-1.564-.015-3.128-.031-4.69.04a10.707 10.707 0 01-5.919-1.258 10.145 10.145 0 00-2.813-.872c-2.332-.527-4.607-1.231-6.942-1.808a37.038 37.038 0 01-6.485-2.237c-.4-.158-.878-.03-1.069-.52a1.3 1.3 0 01.13-1.367 2.4 2.4 0 012.233-.969.465.465 0 00.236-.034c1.893-1.068 1.89-.343 3.813-.185l5.414.693a30.893 30.893 0 013.456.531c2.267.4 4.823.794 5.064.313-2.214 0-4.794-1.727-4.479-2.142a2.709 2.709 0 012.3-1.074 22.465 22.465 0 016.555.732 7.35 7.35 0 004.986-.265c2.757-1.1 5.719-1.463 8.318.227a31.887 31.887 0 018.565 7.588c2.7 3.671 4.006 4.509 6.961 7.97L40.13 47.6a10.252 10.252 0 00-9.58-5.377zm-18.133-9.671l-.356-.046a15.149 15.149 0 0111.478-10.009c-.1-.173-.19-.34-.3-.516a2.866 2.866 0 01-.406-1.036 2.035 2.035 0 00.018-.276 22.64 22.64 0 00-1.192-1.386c-.355-.411-.769-.768-1.154-1.136s-.827-.668-1.218-.99c-.42-.288-.847-.541-1.237-.787l-1.194-.548c-.39-.113-.746-.22-1.061-.311a4.067 4.067 0 00-.836-.133l-.731-.077s.262.046.723.13a4.009 4.009 0 01.813.192c.3.113.643.24 1.017.377.345.192.723.4 1.118.618.365.271.76.542 1.146.85.358.341.759.658 1.109 1.043s.719.756 1.034 1.182a18.256 18.256 0 011.3 1.8c-.517.026-2.2-.2-2.932-.283a12.889 12.889 0 01-2.55-.594 11.591 11.591 0 01-2.431-1.147 12.762 12.762 0 01-3.555-3.394 15.846 15.846 0 00-1.239-1.57 6.918 6.918 0 00-.511-.484l-.214-.162.139-.239a2.618 2.618 0 01.507-.6 5.351 5.351 0 012.376-1.152 8.011 8.011 0 013.3-.006 9.447 9.447 0 015.608 3.467 9 9 0 011.452 2.668 7.879 7.879 0 01.425 2.461c0 .073-.01.144-.012.214.462.584.871 1.159 1.251 1.725a15.2 15.2 0 012.279-.177c.094 0 .181.021.274.022.108-.5.212-1 .306-1.541a3.75 3.75 0 01.495-1.384 3.2 3.2 0 00.257-.261 37.101 37.101 0 01-.308 3.245c.267.019.538.029.8.062.428-.652.914-1.336 1.456-2.018 0-.07-.016-.142-.013-.215a7.964 7.964 0 01.426-2.462A9.071 9.071 0 0131.524 15a9.478 9.478 0 015.609-3.467 8.043 8.043 0 013.3.006 5.357 5.357 0 012.375 1.152 2.666 2.666 0 01.506.606c.091.155.139.241.139.241l-.216.159c-.133.1-.322.307-.509.483a15.877 15.877 0 00-1.24 1.572 12.742 12.742 0 01-3.554 3.393 11.558 11.558 0 01-2.43 1.147 12.994 12.994 0 01-2.552.593c-.735.088-2.414.311-2.933.287a19.521 19.521 0 011.3-1.8 15.559 15.559 0 011.038-1.179c.348-.388.748-.7 1.109-1.045.383-.308.777-.579 1.144-.85l1.119-.618 1.018-.378a3.883 3.883 0 01.811-.192l.724-.13-.731.078a3.944 3.944 0 00-.837.133l-1.063.311-1.193.547c-.39.249-.819.5-1.237.786-.39.324-.83.621-1.219.99a16.072 16.072 0 00-1.15 1.135c-.422.452-.817.916-1.193 1.387a2.066 2.066 0 00.016.277 2.854 2.854 0 01-.406 1.034c-.161.263-.3.516-.445.769a15.14 15.14 0 0111.624 9.405c-.351-.237-.7-.467-1.031-.683-2.7-1.759-6.033-1.9-9.833-.379a5.747 5.747 0 01-3.891.219 24.035 24.035 0 00-7.047-.8 4.332 4.332 0 00-3.6 1.728 1.76 1.76 0 00-.358.959 16.11 16.11 0 00-2.267-.325zm11.544-15.824a17.108 17.108 0 01-2.021-2.808 15.145 15.145 0 01-1.418-3.258 16.813 16.813 0 01-.584-6.466 20.774 20.774 0 00.133-2.643c-.034-.34-.04-.709-.087-.924S19.91.281 19.91.281l.345-.115a3.346 3.346 0 011.031-.163 7.055 7.055 0 013.362.919 10.622 10.622 0 013.293 2.867 12.522 12.522 0 012.567 8.325 11.991 11.991 0 01-.878 3.92 10.6 10.6 0 01-1.718 2.818c-.061.076-.135.134-.2.2.038-.794.05-1.6.02-2.416 0-.717-.1-1.432-.159-2.135s-.242-1.382-.352-2.043c-.167-.652-.374-1.273-.547-1.859l-.71-1.582-.787-1.23a5.246 5.246 0 00-.717-.86c-.418-.455-.659-.714-.659-.714l.607.76a5.157 5.157 0 01.643.9c.2.376.433.8.683 1.261l.577 1.589c.126.586.283 1.2.4 1.84.058.652.182 1.314.193 2a20.717 20.717 0 010 2.075 24.683 24.683 0 01-.275 2.923c-.531-.426-2.009-2.107-2.663-2.833z" fill="#262626"/></svg>